<svg width="60" height="24" viewBox="0 0 60 24" fill="none" xmlns="http://www.w3.org/2000/svg">
<path d="M30.2857 10.5714C32.6526 10.5714 34.5714 8.65265 34.5714 6.28571C34.5714 3.91878 32.6526 2 30.2857 2C27.9188 2 26 3.91878 26 6.28571C26 8.65265 27.9188 10.5714 30.2857 10.5714Z" stroke="#515574" stroke-width="1.8" stroke-linecap="round" stroke-linejoin="round"/>
<path d="M24 22.0001H36C37.1046 22.0001 38 21.1036 38 19.999C38.0002 18.8566 37.5756 17.7379 36.7761 16.7742C35.9766 15.8105 34.4872 14.9171 33.4865 14.5586C32.4858 14.2001 32.2016 14.1828 30.8391 14.0459C29.4767 13.9091 27.8625 14.0753 26.5135 14.5586C25.1646 15.0419 24.0234 15.8105 23.2239 16.7742C22.4244 17.7379 21.9998 18.8566 22 19.999C22 21.1036 22.8954 22.0001 24 22.0001Z" stroke="#515574" stroke-width="1.8" stroke-linecap="round" stroke-linejoin="round"/>
</svg>
