<svg width="60" height="24" viewBox="0 0 60 24" fill="none" xmlns="http://www.w3.org/2000/svg">
<path d="M40.1557 11.2663C40.2429 11.4679 40.2871 11.6855 40.2856 11.9051V20.7034C40.2856 21.1231 40.1189 21.5255 39.8221 21.8223C39.5254 22.1191 39.1229 22.2858 38.7032 22.2858H32.5714V15.4286H27.4285V22.2858H21.2967C20.877 22.2858 20.4745 22.1191 20.1777 21.8223C19.881 21.5255 19.7143 21.1231 19.7143 20.7034V11.9051C19.7128 11.6855 19.757 11.4679 19.8442 11.2663C19.9314 11.0647 20.0596 10.8835 20.2206 10.7341L29.9999 1.71436L39.7793 10.7341C39.9403 10.8835 40.0685 11.0647 40.1557 11.2663Z" stroke="#515574" stroke-width="1.8" stroke-linecap="round" stroke-linejoin="round"/>
</svg>
