<svg width="24" height="24" viewBox="0 0 24 24" fill="none" xmlns="http://www.w3.org/2000/svg">
<path fill-rule="evenodd" clip-rule="evenodd" d="M15.0001 2L15.0002 4.31244C15.7778 4.6164 16.5047 5.03676 17.1559 5.55912L19.1603 4.40192L22.1603 9.59806L20.1568 10.7549C20.219 11.167 20.2502 11.5832 20.2501 12C20.2501 12.4233 20.2182 12.839 20.1568 13.2451L22.1603 14.402L19.1603 19.598L17.156 18.4408C16.5047 18.9632 15.7778 19.3836 15.0002 19.6875L15.0001 22H9.00009V19.6876C8.2225 19.3836 7.4956 18.9633 6.84431 18.4409L4.83989 19.5981L1.83989 14.4019L3.84347 13.2451C3.7812 12.833 3.75 12.4168 3.75014 12C3.75014 11.5768 3.78197 11.1609 3.84342 10.7549L1.83984 9.59806L4.83984 4.40192L6.84422 5.55912C7.49553 5.03677 8.22243 4.61642 9.00005 4.31248L9.00009 2H15.0001ZM12.0001 8.99998C10.3433 8.99998 9.00009 10.3431 9.00009 12C9.00009 13.6568 10.3433 15 12.0001 15C13.6569 15 15.0001 13.6569 15.0001 12C15.0001 10.3431 13.6569 8.99998 12.0001 8.99998Z" fill="white"/>
</svg>
